<?xml version="1.0" standalone="no"?>
<!DOCTYPE svg PUBLIC "-//W3C//DTD SVG 20010904//EN"
 "http://www.w3.org/TR/2001/REC-SVG-20010904/DTD/svg10.dtd">
<svg version="1.0" xmlns="http://www.w3.org/2000/svg"
 width="255.000000pt" height="255.000000pt" viewBox="0 0 255.000000 255.000000"
 preserveAspectRatio="xMidYMid meet">
<metadata>
Created by potrace 1.11, written by Peter Selinger 2001-2013
</metadata>
<g transform="translate(0.000000,255.000000) scale(0.100000,-0.100000)"
fill="#000000" stroke="none">
<path d="M168 1840 l-26 -5 1 -358 0 -359 26 -51 c19 -38 38 -58 69 -75 42
-23 45 -24 418 -25 l375 -2 -3 382 -3 381 -31 38 c-61 76 -61 76 -452 77 -191
1 -360 0 -374 -3z"/>
<path d="M1119 1462 l-37 -3 0 -225 1 -224 33 0 c37 0 34 -8 38 100 l1 45 65
7 c36 4 74 12 86 18 35 19 55 65 55 129 1 108 -37 148 -141 153 -36 2 -81 2
-101 0z m157 -63 c23 -26 24 -128 1 -163 -15 -23 -24 -26 -71 -26 l-54 0 0
104 0 105 32 3 c46 5 73 -2 92 -23z"/>
<path d="M1472 1445 c-4 -5 -7 -103 -7 -217 0 -196 1 -207 19 -212 11 -3 23
-3 28 0 4 3 8 50 8 104 l0 98 58 0 c111 0 112 0 112 26 0 24 -3 25 -67 24
-112 0 -103 -6 -103 67 0 74 -10 68 118 65 60 -1 62 -1 62 24 0 14 -3 26 -7
27 -65 6 -216 2 -221 -6z"/>
<path d="M1860 1449 c-66 -14 -89 -81 -53 -156 15 -33 15 -36 0 -45 -29 -16
-67 -62 -68 -83 -6 -75 13 -115 64 -136 44 -19 128 -15 165 7 30 17 32 17 51
0 11 -10 30 -16 45 -14 l26 3 -29 34 c-28 32 -29 36 -16 62 8 15 17 45 21 67
6 36 4 39 -17 38 -17 -1 -25 -9 -32 -36 -5 -19 -12 -39 -16 -43 -5 -5 -28 15
-51 43 -41 49 -43 53 -24 63 73 41 97 121 49 170 -29 28 -64 36 -115 26z m78
-51 c22 -22 14 -65 -19 -92 -39 -33 -45 -33 -64 4 -20 39 -19 77 3 89 23 14
65 14 80 -1z m-29 -235 c28 -31 51 -62 51 -68 0 -7 -11 -17 -25 -23 -100 -46
-191 49 -119 122 15 14 30 26 35 26 4 0 30 -26 58 -57z"/>
<path d="M2153 1452 c-23 -3 -23 -3 -23 -217 1 -158 4 -214 13 -217 7 -3 49
-4 95 -3 140 4 172 45 172 216 0 174 -32 218 -162 222 -40 1 -83 1 -95 -1z
m173 -75 c27 -31 39 -111 30 -199 -9 -99 -35 -123 -127 -116 l-44 3 -1 165 c0
91 1 168 3 172 2 4 29 5 60 4 47 -3 61 -8 79 -29z"/>
<path d="M1503 939 c-13 -5 -23 -12 -24 -16 0 -4 -2 -16 -4 -26 -5 -24 22 -47
53 -46 27 1 27 1 -3 8 -22 4 -31 13 -33 31 -4 27 21 52 44 43 8 -3 14 -3 14 0
0 11 -26 14 -47 6z"/>
<path d="M2036 935 c-3 -8 -12 -15 -20 -15 -19 0 -35 -28 -29 -51 4 -13 14
-19 34 -19 28 0 29 2 29 50 0 52 -4 61 -14 35z m-2 -41 c8 -20 -1 -34 -20 -34
-8 0 -14 8 -14 18 0 33 23 44 34 16z"/>
<path d="M1748 929 c-2 -6 -2 -26 0 -45 3 -23 9 -34 21 -34 9 0 12 3 6 8 -14
10 -19 44 -7 51 6 4 5 11 -3 18 -9 9 -15 9 -17 2z"/>
<path d="M1567 913 c-9 -19 -6 -64 4 -57 6 3 9 15 6 25 -3 11 2 23 11 29 16 9
16 9 0 10 -9 0 -19 -3 -21 -7z"/>
<path d="M1610 905 c-19 -23 -3 -55 28 -54 21 1 22 2 7 6 -36 9 -41 23 -8 23
18 0 33 -6 37 -15 3 -8 17 -15 31 -15 24 0 26 3 23 33 -2 26 -8 32 -28 34
l-25 2 24 -7 24 -7 -26 -12 c-23 -11 -28 -10 -37 7 -13 24 -33 26 -50 5z m35
-5 c3 -5 -1 -10 -10 -10 -9 0 -13 5 -10 10 3 6 8 10 10 10 2 0 7 -4 10 -10z
m66 -33 c-13 -13 -26 -3 -16 12 3 6 11 8 17 5 6 -4 6 -10 -1 -17z"/>
<path d="M1791 878 c0 -31 3 -37 8 -24 7 18 3 66 -5 66 -2 0 -4 -19 -3 -42z"/>
<path d="M1815 903 c4 -10 10 -26 12 -35 7 -24 20 -23 28 2 3 11 10 20 15 20
4 0 10 -9 13 -20 3 -13 13 -20 29 -19 l23 0 -25 12 -25 11 28 4 c15 2 27 10
27 18 0 21 -29 29 -51 15 -15 -8 -19 -8 -19 1 0 13 -14 2 -16 -13 -1 -5 -2
-15 -3 -21 -1 -7 -9 -1 -17 15 -16 30 -30 37 -19 10z m110 -3 c3 -5 -3 -10
-15 -10 -12 0 -18 5 -15 10 3 6 10 10 15 10 5 0 12 -4 15 -10z"/>
<path d="M2071 883 c1 -28 3 -31 6 -13 3 14 10 31 15 38 8 9 6 12 -6 12 -12 0
-16 -9 -15 -37z"/>
<path d="M2114 906 c-11 -28 1 -51 26 -53 l25 -3 -25 12 -25 12 28 4 c21 2 27
8 23 19 -3 8 -6 17 -6 19 0 11 -41 2 -46 -10z m36 -6 c0 -5 -7 -10 -16 -10 -8
0 -12 5 -9 10 3 6 10 10 16 10 5 0 9 -4 9 -10z"/>
<path d="M2203 914 c22 -7 22 -22 0 -20 -12 0 -19 -7 -21 -21 -3 -19 1 -23 26
-23 26 0 28 3 27 33 -1 26 -6 32 -26 34 -14 1 -17 0 -6 -3z m17 -45 c0 -5 -7
-9 -15 -9 -15 0 -20 12 -9 23 8 8 24 -1 24 -14z"/>
<path d="M2250 881 c0 -19 3 -31 7 -27 4 4 8 17 8 28 0 12 6 23 13 25 8 3 12
-6 12 -26 0 -17 4 -31 9 -31 5 0 8 11 5 24 -2 14 1 28 7 31 14 9 21 1 23 -29
0 -14 5 -21 9 -17 4 4 5 20 1 35 -6 24 -10 27 -50 25 -43 -3 -44 -3 -44 -38z"/>
<path d="M1481 753 c0 -40 2 -44 10 -25 5 13 12 21 17 18 4 -2 14 -1 22 5 11
6 8 9 -12 9 -18 0 -28 5 -28 14 0 8 12 17 28 19 25 4 25 4 -5 6 -33 1 -33 1
-32 -46z"/>
<path d="M2006 755 c1 -47 14 -77 14 -34 0 13 4 30 9 38 13 20 34 2 28 -25 -2
-14 0 -27 5 -30 5 -4 8 10 6 32 -3 33 -6 39 -25 38 -13 0 -23 5 -23 13 0 7 -3
13 -7 13 -5 0 -7 -20 -7 -45z"/>
<path d="M2120 789 c0 -5 5 -7 10 -4 6 3 10 8 10 11 0 2 -4 4 -10 4 -5 0 -10
-5 -10 -11z"/>
<path d="M1602 768 c-7 -7 -11 -26 -11 -42 2 -28 2 -28 6 -6 3 14 12 33 20 43
18 19 4 24 -15 5z"/>
<path d="M1684 768 c-4 -6 -3 -8 2 -5 6 3 16 2 24 -4 12 -7 10 -9 -7 -9 -12 0
-25 -5 -28 -10 -10 -16 13 -39 36 -37 25 2 27 62 3 71 -21 8 -22 8 -30 -6z
m36 -37 c0 -5 -7 -11 -15 -15 -9 -3 -15 0 -15 9 0 8 7 15 15 15 8 0 15 -4 15
-9z"/>
<path d="M1789 776 c-5 -6 -3 -73 3 -70 4 3 8 16 8 29 0 13 4 26 9 29 12 8 29
-16 26 -36 -2 -10 1 -18 6 -18 14 0 11 46 -3 57 -10 8 -44 14 -49 9z"/>
<path d="M1918 773 c-22 -5 -24 -46 -4 -63 11 -8 20 -9 33 -1 17 11 17 11 -1
9 -25 -4 -46 29 -26 42 8 5 18 6 22 4 4 -3 8 0 8 5 0 11 -3 12 -32 4z"/>
<path d="M2197 773 c-14 -13 -7 -32 14 -38 16 -6 18 -9 8 -15 -7 -5 -18 -6
-24 -3 -6 4 -6 2 1 -6 11 -12 44 -5 44 10 0 4 -10 15 -22 23 -20 14 -18 21 5
17 5 -1 6 3 2 9 -7 12 -19 13 -28 3z"/>
<path d="M2292 764 c-19 -33 16 -80 41 -55 6 6 4 9 -4 8 -23 -3 -22 18 1 21
23 4 25 13 8 30 -17 17 -35 15 -46 -4z m38 -4 c0 -5 -7 -10 -16 -10 -8 0 -12
5 -9 10 3 6 10 10 16 10 5 0 9 -4 9 -10z"/>
<path d="M2124 745 c4 -38 17 -44 14 -7 -1 18 -5 32 -9 32 -4 0 -6 -11 -5 -25z"/>
</g>
</svg>
