<svg version="1" xmlns="http://www.w3.org/2000/svg" width="340" height="340" viewBox="0 0 255.000000 255.000000"><path d="M16.8 71l-2.6.5.1 35.8v35.9l2.6 5.1c1.9 3.8 3.8 5.8 6.9 7.5 4.2 2.3 4.5 2.4 41.8 2.5l37.5.2-.3-38.2-.3-38.1-3.1-3.8c-6.1-7.6-6.1-7.6-45.2-7.7-19.1-.1-36 0-37.4.3zm95.1 37.8l-3.7.3v22.5l.1 22.4h3.3c3.7 0 3.4.8 3.8-10l.1-4.5 6.5-.7c3.6-.4 7.4-1.2 8.6-1.8 3.5-1.9 5.5-6.5 5.5-12.9.1-10.8-3.7-14.8-14.1-15.3-3.6-.2-8.1-.2-10.1 0zm15.7 6.3c2.3 2.6 2.4 12.8.1 16.3-1.5 2.3-2.4 2.6-7.1 2.6h-5.4v-20.9l3.2-.3c4.6-.5 7.3.2 9.2 2.3zm19.6-4.6c-.4.5-.7 10.3-.7 21.7 0 19.6.1 20.7 1.9 21.2 1.1.3 2.3.3 2.8 0 .4-.3.8-5 .8-10.4v-9.8h5.8c11.1 0 11.2 0 11.2-2.6 0-2.4-.3-2.5-6.7-2.4-11.2 0-10.3.6-10.3-6.7 0-7.4-1-6.8 11.8-6.5 6 .1 6.2.1 6.2-2.4 0-1.4-.3-2.6-.7-2.7-6.5-.6-21.6-.2-22.1.6zm38.8-.4c-6.6 1.4-8.9 8.1-5.3 15.6 1.5 3.3 1.5 3.6 0 4.5-2.9 1.6-6.7 6.2-6.8 8.3-.6 7.5 1.3 11.5 6.4 13.6 4.4 1.9 12.8 1.5 16.5-.7 3-1.7 3.2-1.7 5.1 0 1.1 1 3 1.6 4.5 1.4l2.6-.3-2.9-3.4c-2.8-3.2-2.9-3.6-1.6-6.2.8-1.5 1.7-4.5 2.1-6.7.6-3.6.4-3.9-1.7-3.8-1.7.1-2.5.9-3.2 3.6-.5 1.9-1.2 3.9-1.6 4.3-.5.5-2.8-1.5-5.1-4.3-4.1-4.9-4.3-5.3-2.4-6.3 7.3-4.1 9.7-12.1 4.9-17-2.9-2.8-6.4-3.6-11.5-2.6zm7.8 5.1c2.2 2.2 1.4 6.5-1.9 9.2-3.9 3.3-4.5 3.3-6.4-.4-2-3.9-1.9-7.7.3-8.9 2.3-1.4 6.5-1.4 8 .1zm-2.9 23.5c2.8 3.1 5.1 6.2 5.1 6.8 0 .7-1.1 1.7-2.5 2.3-10 4.6-19.1-4.9-11.9-12.2 1.5-1.4 3-2.6 3.5-2.6.4 0 3 2.6 5.8 5.7zm24.4-28.9c-2.3.3-2.3.3-2.3 21.7.1 15.8.4 21.4 1.3 21.7.7.3 4.9.4 9.5.3 14-.4 17.2-4.5 17.2-21.6 0-17.4-3.2-21.8-16.2-22.2-4-.1-8.3-.1-9.5.1zm17.3 7.5c2.7 3.1 3.9 11.1 3 19.9-.9 9.9-3.5 12.3-12.7 11.6l-4.4-.3-.1-16.5c0-9.1.1-16.8.3-17.2.2-.4 2.9-.5 6-.4 4.7.3 6.1.8 7.9 2.9zm-82.3 43.8c-1.3.5-2.3 1.2-2.4 1.6 0 .4-.2 1.6-.4 2.6-.5 2.4 2.2 4.7 5.3 4.6 2.7-.1 2.7-.1-.3-.8-2.2-.4-3.1-1.3-3.3-3.1-.4-2.7 2.1-5.2 4.4-4.3.8.3 1.4.3 1.4 0 0-1.1-2.6-1.4-4.7-.6zm53.3.4c-.3.8-1.2 1.5-2 1.5-1.9 0-3.5 2.8-2.9 5.1.4 1.3 1.4 1.9 3.4 1.9 2.8 0 2.9-.2 2.9-5 0-5.2-.4-6.1-1.4-3.5zm-.2 4.1c.8 2-.1 3.4-2 3.4-.8 0-1.4-.8-1.4-1.8 0-3.3 2.3-4.4 3.4-1.6zm-28.6-3.5c-.2.6-.2 2.6 0 4.5.3 2.3.9 3.4 2.1 3.4.9 0 1.2-.3.6-.8-1.4-1-1.9-4.4-.7-5.1.6-.4.5-1.1-.3-1.8-.9-.9-1.5-.9-1.7-.2zm-18.1 1.6c-.9 1.9-.6 6.4.4 5.7.6-.3.9-1.5.6-2.5-.3-1.1.2-2.3 1.1-2.9 1.6-.9 1.6-.9 0-1-.9 0-1.9.3-2.1.7zm4.3.8c-1.9 2.3-.3 5.5 2.8 5.4 2.1-.1 2.2-.2.7-.6-3.6-.9-4.1-2.3-.8-2.3 1.8 0 3.3.6 3.7 1.5.3.8 1.7 1.5 3.1 1.5 2.4 0 2.6-.3 2.3-3.3-.2-2.6-.8-3.2-2.8-3.4l-2.5-.2 2.4.7 2.4.7-2.6 1.2c-2.3 1.1-2.8 1-3.7-.7-1.3-2.4-3.3-2.6-5-.5zm3.5.5c.3.5-.1 1-1 1s-1.3-.5-1-1c.3-.6.8-1 1-1 .2 0 .7.4 1 1zm6.6 3.3c-1.3 1.3-2.6.3-1.6-1.2.3-.6 1.1-.8 1.7-.5.6.4.6 1-.1 1.7zm8-1.1c0 3.1.3 3.7.8 2.4.7-1.8.3-6.6-.5-6.6-.2 0-.4 1.9-.3 4.2zm2.4-2.5c.4 1 1 2.6 1.2 3.5.7 2.4 2 2.3 2.8-.2.3-1.1 1-2 1.5-2 .4 0 1 .9 1.3 2 .3 1.3 1.3 2 2.9 1.9h2.3l-2.5-1.2-2.5-1.1 2.8-.4c1.5-.2 2.7-1 2.7-1.8 0-2.1-2.9-2.9-5.1-1.5-1.5.8-1.9.8-1.9-.1 0-1.3-1.4-.2-1.6 1.3-.1.5-.2 1.5-.3 2.1-.1.7-.9.1-1.7-1.5-1.6-3-3-3.7-1.9-1zm11 .3c.3.5-.3 1-1.5 1s-1.8-.5-1.5-1c.3-.6 1-1 1.5-1s1.2.4 1.5 1zm14.6 1.7c.1 2.8.3 3.1.6 1.3.3-1.4 1-3.1 1.5-3.8.8-.9.6-1.2-.6-1.2s-1.6.9-1.5 3.7zm4.3-2.3c-1.1 2.8.1 5.1 2.6 5.3l2.5.3-2.5-1.2-2.5-1.2 2.8-.4c2.1-.2 2.7-.8 2.3-1.9-.3-.8-.6-1.7-.6-1.9 0-1.1-4.1-.2-4.6 1zm3.6.6c0 .5-.7 1-1.6 1-.8 0-1.2-.5-.9-1 .3-.6 1-1 1.6-1 .5 0 .9.4.9 1zm5.3-1.4c2.2.7 2.2 2.2 0 2-1.2 0-1.9.7-2.1 2.1-.3 1.9.1 2.3 2.6 2.3 2.6 0 2.8-.3 2.7-3.3-.1-2.6-.6-3.2-2.6-3.4-1.4-.1-1.7 0-.6.3zm1.7 4.5c0 .5-.7.9-1.5.9-1.5 0-2-1.2-.9-2.3.8-.8 2.4.1 2.4 1.4zm3-1.2c0 1.9.3 3.1.7 2.7.4-.4.8-1.7.8-2.8 0-1.2.6-2.3 1.3-2.5.8-.3 1.2.6 1.2 2.6 0 1.7.4 3.1.9 3.1s.8-1.1.5-2.4c-.2-1.4.1-2.8.7-3.1 1.4-.9 2.1-.1 2.3 2.9 0 1.4.5 2.1.9 1.7.4-.4.5-2 .1-3.5-.6-2.4-1-2.7-5-2.5-4.3.3-4.4.3-4.4 3.8zm-76.9 12.8c0 4 .2 4.4 1 2.5.5-1.3 1.2-2.1 1.7-1.8.4.2 1.4.1 2.2-.5 1.1-.6.8-.9-1.2-.9-1.8 0-2.8-.5-2.8-1.4 0-.8 1.2-1.7 2.8-1.9 2.5-.4 2.5-.4-.5-.6-3.3-.1-3.3-.1-3.2 4.6zm52.5-.2c.1 4.7 1.4 7.7 1.4 3.4 0-1.3.4-3 .9-3.8 1.3-2 3.4-.2 2.8 2.5-.2 1.4 0 2.7.5 3 .5.4.8-1 .6-3.2-.3-3.3-.6-3.9-2.5-3.8-1.3 0-2.3-.5-2.3-1.3 0-.7-.3-1.3-.7-1.3-.5 0-.7 2-.7 4.5zm11.4-3.4c0 .5.5.7 1 .4.6-.3 1-.8 1-1.1 0-.2-.4-.4-1-.4-.5 0-1 .5-1 1.1zm-51.8 2.1c-.7.7-1.1 2.6-1.1 4.2.2 2.8.2 2.8.6.6.3-1.4 1.2-3.3 2-4.3 1.8-1.9.4-2.4-1.5-.5zm8.2 0c-.4.6-.3.8.2.5.6-.3 1.6-.2 2.4.4 1.2.7 1 .9-.7.9-1.2 0-2.5.5-2.8 1-1 1.6 1.3 3.9 3.6 3.7 2.5-.2 2.7-6.2.3-7.1-2.1-.8-2.2-.8-3 .6zm3.6 3.7c0 .5-.7 1.1-1.5 1.5-.9.3-1.5 0-1.5-.9 0-.8.7-1.5 1.5-1.5s1.5.4 1.5.9zm6.9-4.5c-.5.6-.3 7.3.3 7 .4-.3.8-1.6.8-2.9 0-1.3.4-2.6.9-2.9 1.2-.8 2.9 1.6 2.6 3.6-.2 1 .1 1.8.6 1.8 1.4 0 1.1-4.6-.3-5.7-1-.8-4.4-1.4-4.9-.9zm12.9.3c-2.2.5-2.4 4.6-.4 6.3 1.1.8 2 .9 3.3.1 1.7-1.1 1.7-1.1-.1-.9-2.5.4-4.6-2.9-2.6-4.2.8-.5 1.8-.6 2.2-.4.4.3.8 0 .8-.5 0-1.1-.3-1.2-3.2-.4zm27.9 0c-1.4 1.3-.7 3.2 1.4 3.8 1.6.6 1.8.9.8 1.5-.7.5-1.8.6-2.4.3-.6-.4-.6-.2.1.6 1.1 1.2 4.4.5 4.4-1 0-.4-1-1.5-2.2-2.3-2-1.4-1.8-2.1.5-1.7.5.1.6-.3.2-.9-.7-1.2-1.9-1.3-2.8-.3zm9.5.9c-1.9 3.3 1.6 8 4.1 5.5.6-.6.4-.9-.4-.8-2.3.3-2.2-1.8.1-2.1 2.3-.4 2.5-1.3.8-3s-3.5-1.5-4.6.4zm3.8.4c0 .5-.7 1-1.6 1-.8 0-1.2-.5-.9-1 .3-.6 1-1 1.6-1 .5 0 .9.4.9 1zm-20.6 1.5c.4 3.8 1.7 4.4 1.4.7-.1-1.8-.5-3.2-.9-3.2s-.6 1.1-.5 2.5z"/></svg>